<?xml version="1.0"?>
<svg xmlns="http://www.w3.org/2000/svg" xmlns:xlink="http://www.w3.org/1999/xlink" xmlns:svgjs="http://svgjs.com/svgjs" version="1.1" width="512" height="512" x="0" y="0" viewBox="0 0 32 32" style="enable-background:new 0 0 512 512" xml:space="preserve" class=""><g><path xmlns="http://www.w3.org/2000/svg" d="m26.042 32.042h-20c-3.314 0-6-2.686-6-6v-20c0-3.314 2.686-6 6-6h20c3.314 0 6 2.686 6 6v20c0 3.313-2.687 6-6 6z" fill="#fffced" data-original="#fff9dd" style="" class=""/><circle xmlns="http://www.w3.org/2000/svg" cx="16" cy="16" fill="#ffe04f" r="4.667" data-original="#ffd200" style="" class=""/><g xmlns="http://www.w3.org/2000/svg" fill="#ffe777"><path d="m16 10.333c.368 0 .667-.299.667-.667v-1c0-.368-.299-.666-.667-.666s-.667.299-.667.667v1c0 .368.299.666.667.666z" fill="#ffe777" data-original="#ffe777" style="" class=""/><path d="m10.704 12.173-.867-.5c-.319-.184-.727-.075-.911.244s-.075.727.244.911l.867.5c.105.061.219.089.333.089.23 0 .454-.119.578-.333.185-.32.075-.728-.244-.911z" fill="#ffe777" data-original="#ffe777" style="" class=""/><path d="m22.829 19.173-.867-.5c-.318-.184-.727-.075-.911.244s-.075.727.244.911l.867.5c.105.061.219.089.333.089.23 0 .454-.119.578-.333.184-.32.075-.728-.244-.911z" fill="#ffe777" data-original="#ffe777" style="" class=""/><path d="m10.038 18.673-.867.5c-.319.184-.428.592-.244.911.124.214.348.333.578.333.113 0 .228-.029.333-.089l.867-.5c.319-.184.428-.592.244-.911-.185-.319-.594-.428-.911-.244z" fill="#ffe777" data-original="#ffe777" style="" class=""/><path d="m21.63 13.417c.113 0 .228-.029.333-.089l.867-.5c.319-.184.428-.592.244-.911-.185-.319-.593-.428-.911-.244l-.867.5c-.319.184-.428.592-.244.911.123.213.347.333.578.333z" fill="#ffe777" data-original="#ffe777" style="" class=""/><path d="m16 21.667c-.368 0-.667.299-.667.667v1c0 .368.299.666.667.666s.667-.299.667-.667v-1c0-.368-.299-.666-.667-.666z" fill="#ffe777" data-original="#ffe777" style="" class=""/></g></g></svg>
