<?xml version="1.0"?>
<svg xmlns="http://www.w3.org/2000/svg" xmlns:xlink="http://www.w3.org/1999/xlink" xmlns:svgjs="http://svgjs.com/svgjs" version="1.1" width="512" height="512" x="0" y="0" viewBox="0 0 512 512" style="enable-background:new 0 0 512 512" xml:space="preserve" class=""><g><path xmlns="http://www.w3.org/2000/svg" d="m416 512h-320c-53.023438 0-96-42.976562-96-96v-320c0-53.023438 42.976562-96 96-96h320c53.023438 0 96 42.976562 96 96v320c0 53.023438-42.976562 96-96 96zm0 0" fill="#e4feff" data-original="#fff9dd" style="" class=""/><path xmlns="http://www.w3.org/2000/svg" d="m274.671875 234.671875c-10.304687 0-18.671875 8.351563-18.671875 18.671875v112c0 10.304688 8.351562 18.65625 18.671875 18.65625h90.671875c10.304688 0 18.65625-8.351562 18.65625-18.671875v-111.472656c0-10.609375-8.59375-19.199219-19.199219-19.199219h-90.128906zm68 106.65625h-48c-4.414063 0-8-3.585937-8-8 0-4.417969 3.585937-8 8-8h48c4.417969 0 8 3.582031 8 8 0 4.414063-3.582031 8-8 8zm0-32h-48c-4.414063 0-8-3.585937-8-8 0-4.417969 3.585937-8 8-8h48c4.417969 0 8 3.582031 8 8 0 4.414063-3.582031 8-8 8zm0 0" fill="#779fff" data-original="#ffe777" style="" class=""/><path xmlns="http://www.w3.org/2000/svg" d="m280 160h-13.328125v-2.671875c0-4.417969-3.582031-8-8-8h-11.777344c-3.503906-12.289063-14.816406-21.328125-28.222656-21.328125s-24.734375 9.039062-28.222656 21.328125h-11.777344c-4.414063 0-8 3.582031-8 8v2.671875h-13.34375c-16.175781 0-29.328125 13.152344-29.328125 29.328125v133.328125c0 16.191406 13.152344 29.34375 29.328125 29.34375h82.671875v-98.671875c0-19.121094 15.550781-34.671875 34.671875-34.671875h34.671875v-29.328125c-.015625-16.175781-13.167969-29.328125-29.34375-29.328125zm-93.328125 5.328125h10.671875c4.417969 0 8-3.585937 8-8 0-7.359375 5.984375-13.328125 13.328125-13.328125 7.359375 0 13.328125 5.984375 13.328125 13.328125 0 4.414063 3.585938 8 8 8h10.671875v13.328125c0 1.472656-1.199219 2.671875-2.671875 2.671875h-58.671875c-1.472656 0-2.671875-1.199219-2.671875-2.671875v-13.328125zm0 0" fill="#52b6ff" data-original="#ffd200" style="" class=""/></g></svg>
