<?xml version="1.0"?>
<svg xmlns="http://www.w3.org/2000/svg" xmlns:xlink="http://www.w3.org/1999/xlink" xmlns:svgjs="http://svgjs.com/svgjs" version="1.1" width="512" height="512" x="0" y="0" viewBox="0 0 32 32" style="enable-background:new 0 0 512 512" xml:space="preserve" class=""><g><path xmlns="http://www.w3.org/2000/svg" d="m26 32h-20c-3.314 0-6-2.686-6-6v-20c0-3.314 2.686-6 6-6h20c3.314 0 6 2.686 6 6v20c0 3.314-2.686 6-6 6z" fill="#e3f2fa" data-original="#e3f8fa" style="" class=""/><path xmlns="http://www.w3.org/2000/svg" d="m14 8c-1.838 0-3.333 1.495-3.333 3.333s1.495 3.333 3.333 3.333 3.333-1.495 3.333-3.333-1.495-3.333-3.333-3.333z" fill="#ffd5c0" data-original="#26c6da" style="" class=""/><g xmlns="http://www.w3.org/2000/svg" fill="#8ce1eb"><path d="m19.054 23.987c-.269-.062-.437-.33-.375-.6l1-4.333c.063-.269.331-.439.6-.374.269.062.437.33.375.6l-1 4.333c-.064.275-.34.437-.6.374z" fill="#8cb6eb" data-original="#8ce1eb" style="" class=""/><path d="m21.833 23.333c-.137 0-.273-.056-.372-.165-.185-.206-.168-.521.037-.706l1.254-1.128-1.254-1.128c-.205-.185-.222-.501-.037-.706.186-.205.501-.221.706-.037l1.667 1.5c.106.094.166.229.166.37 0 .142-.06.277-.165.372l-1.667 1.5c-.096.086-.215.128-.335.128z" fill="#8cb6eb" data-original="#8ce1eb" style="" class=""/><path d="m17.5 23.333c-.119 0-.239-.042-.335-.128l-1.667-1.5c-.105-.095-.165-.23-.165-.372s.06-.277.165-.372l1.667-1.5c.205-.184.521-.167.706.037.185.206.168.521-.037.706l-1.254 1.128 1.254 1.128c.205.185.222.501.037.706-.098.111-.234.167-.371.167z" fill="#8cb6eb" data-original="#8ce1eb" style="" class=""/></g><path xmlns="http://www.w3.org/2000/svg" d="m14.167 21.333c0-.518.22-1.014.604-1.361l1.669-1.502c.339-.304.773-.47 1.226-.47.376 0 .738.119 1.043.329.227-.443.621-.771 1.092-.915-.568-.851-1.536-1.414-2.634-1.414h-6c-1.746 0-3.167 1.421-3.167 3.167v2.667c0 .276.224.5.5.5h5.972c-.193-.297-.305-.642-.305-1.001z" fill="#ffd5c0" data-original="#26c6da" style="" class=""/></g></svg>
