<?xml version="1.0"?>
<svg xmlns="http://www.w3.org/2000/svg" xmlns:xlink="http://www.w3.org/1999/xlink" xmlns:svgjs="http://svgjs.com/svgjs" version="1.1" width="512" height="512" x="0" y="0" viewBox="0 0 32 32" style="enable-background:new 0 0 512 512" xml:space="preserve" class=""><g transform="matrix(1,-7.34788079488412e-16,7.34788079488412e-16,1,-2.3092638912203256e-14,1.7763568394002505e-14)"><path xmlns="http://www.w3.org/2000/svg" d="m26 32h-20c-3.314 0-6-2.686-6-6v-20c0-3.314 2.686-6 6-6h20c3.314 0 6 2.686 6 6v20c0 3.314-2.686 6-6 6z" fill="#fff6ec" data-original="#ffe6e2" style="" class=""/><g xmlns="http://www.w3.org/2000/svg" fill="#fd907e"><path d="m21.333 14.667c-.368 0-.667-.299-.667-.667v-.667c0-.368.299-.667.667-.667s.667.299.667.667v.667c0 .368-.298.667-.667.667z" fill="#ff6e56" data-original="#fd907e" style="" class=""/><path d="m23.334 12h-.667c-.368 0-.667-.299-.667-.667s.299-.667.667-.667h.667c.368 0 .667.299.667.667s-.299.667-.667.667z" fill="#ff6e56" data-original="#fd907e" style="" class=""/><path d="m21.333 10c-.368 0-.667-.299-.667-.667v-.666c.001-.369.299-.667.667-.667s.667.298.667.667v.667c0 .367-.298.666-.667.666z" fill="#ff6e56" data-original="#fd907e" style="" class=""/></g><path xmlns="http://www.w3.org/2000/svg" d="m18.667 15.123v-1.29c0-.532-.36-.977-.847-1.117.419-.491 1.117-.716 2.847-.716.368 0 .667-.299.667-.667s-.299-.667-.667-.667c-2.117 0-3.501.304-4.309 1.859-.023.045-.028.093-.04.141h-.484c-.643 0-1.167.523-1.167 1.167v1.29c-1.574.751-2.667 2.353-2.667 4.21 0 2.574 2.093 4.667 4.667 4.667s4.667-2.093 4.667-4.667c-.001-1.857-1.093-3.459-2.667-4.21zm-2 2.21c-1.103 0-2 .897-2 2 0 .369-.299.667-.667.667s-.667-.299-.667-.667c0-1.838 1.496-3.333 3.333-3.333.368 0 .667.299.667.667s-.298.666-.666.666z" fill="#2c2c2c" data-original="#fc573b" style="" class=""/></g></svg>
