<?xml version="1.0"?>
<svg xmlns="http://www.w3.org/2000/svg" xmlns:xlink="http://www.w3.org/1999/xlink" xmlns:svgjs="http://svgjs.com/svgjs" version="1.1" width="512" height="512" x="0" y="0" viewBox="0 0 32 32" style="enable-background:new 0 0 512 512" xml:space="preserve" class=""><g><path xmlns="http://www.w3.org/2000/svg" d="m26 32h-20c-3.314 0-6-2.686-6-6v-20c0-3.314 2.686-6 6-6h20c3.314 0 6 2.686 6 6v20c0 3.314-2.686 6-6 6z" fill="#ffffff" data-original="#ffe6e2" style="" class=""/><path xmlns="http://www.w3.org/2000/svg" d="m22.333 10.667h-12.666c-.919 0-1.667.747-1.667 1.666v7.333c0 .919.748 1.667 1.667 1.667h12.667c.919 0 1.667-.748 1.667-1.667v-7.333c-.001-.919-.749-1.666-1.668-1.666zm.334 3.606-5.74 3c-.287.147-.607.227-.927.227s-.633-.08-.927-.227l-5.74-3v-1.507l6.353 3.32c.193.1.433.1.627 0l6.353-3.32v1.507z" fill="#d44638" data-original="#fc573b" style="" class=""/></g></svg>
