<?xml version="1.0"?>
<svg xmlns="http://www.w3.org/2000/svg" xmlns:xlink="http://www.w3.org/1999/xlink" xmlns:svgjs="http://svgjs.com/svgjs" version="1.1" width="512" height="512" x="0" y="0" viewBox="0 0 32 32" style="enable-background:new 0 0 512 512" xml:space="preserve" class=""><g><path xmlns="http://www.w3.org/2000/svg" d="m26 32h-20c-3.314 0-6-2.686-6-6v-20c0-3.314 2.686-6 6-6h20c3.314 0 6 2.686 6 6v20c0 3.314-2.686 6-6 6z" fill="#ffeeeb" data-original="#ffe6e2" style="" class=""/><g xmlns="http://www.w3.org/2000/svg" fill="#fc573b"><path d="m16 24c-4.411 0-8-3.589-8-8s3.589-8 8-8 8 3.589 8 8-3.589 8-8 8zm0-14.667c-3.676 0-6.667 2.991-6.667 6.667s2.991 6.667 6.667 6.667 6.667-2.991 6.667-6.667-2.991-6.667-6.667-6.667z" fill="#d11e00" data-original="#fc573b" style="" class=""/><path d="m14.667 11.333h-3.5c-.368 0-.667-.299-.667-.667s.298-.666.667-.666h3.5c.368 0 .667.299.667.667s-.299.666-.667.666z" fill="#d11e00" data-original="#fc573b" style="" class=""/><path d="m12.667 14h-3.334c-.368 0-.667-.299-.667-.667s.298-.667.667-.667h3.333c.368 0 .667.299.667.667s-.298.667-.666.667z" fill="#d11e00" data-original="#fc573b" style="" class=""/></g><path xmlns="http://www.w3.org/2000/svg" d="m18.667 14h-3.333c-.368 0-.667-.299-.667-.667s.298-.667.667-.667h3.333c.368 0 .667.299.667.667s-.299.667-.667.667z" fill="#ff735c" data-original="#fd907e" style="" class=""/><path xmlns="http://www.w3.org/2000/svg" d="m16 16.667h-7.167c-.368 0-.667-.299-.667-.667s.298-.667.667-.667h7.167c.368 0 .667.299.667.667s-.299.667-.667.667z" fill="#d11e00" data-original="#fc573b" style="" class=""/><path xmlns="http://www.w3.org/2000/svg" d="m22.667 19.333h-4c-.368 0-.667-.299-.667-.667s.298-.666.667-.666h4c.369 0 .667.299.667.667s-.299.666-.667.666z" fill="#d11e00" data-original="#fc573b" style="" class=""/><path xmlns="http://www.w3.org/2000/svg" d="m16 19.333h-1.333c-.368 0-.667-.299-.667-.667s.298-.666.667-.666h1.333c.368 0 .667.299.667.667s-.299.666-.667.666z" fill="#ff735c" data-original="#fd907e" style="" class=""/><path xmlns="http://www.w3.org/2000/svg" d="m14 22h-2.667c-.368 0-.667-.299-.667-.667s.298-.667.667-.667h2.667c.368 0 .667.299.667.667s-.299.667-.667.667z" fill="#d11e00" data-original="#fc573b" style="" class=""/><path xmlns="http://www.w3.org/2000/svg" d="m18 22h-1.333c-.369 0-.667-.298-.667-.667s.298-.667.667-.667h1.333c.368 0 .667.299.667.667s-.298.667-.667.667z" fill="#ff735c" data-original="#fd907e" style="" class=""/></g></svg>
