<?xml version="1.0"?>
<svg xmlns="http://www.w3.org/2000/svg" xmlns:xlink="http://www.w3.org/1999/xlink" xmlns:svgjs="http://svgjs.com/svgjs" version="1.1" width="512" height="512" x="0" y="0" viewBox="0 0 32 32" style="enable-background:new 0 0 512 512" xml:space="preserve" class=""><g transform="matrix(-1,1.2246467991473532e-16,-1.2246467991473532e-16,-1,32,32)"><path xmlns="http://www.w3.org/2000/svg" d="m26 32h-20c-3.314 0-6-2.686-6-6v-20c0-3.314 2.686-6 6-6h20c3.314 0 6 2.686 6 6v20c0 3.314-2.686 6-6 6z" fill="#e3f8fa" data-original="#e3f8fa" style="" class=""/><path xmlns="http://www.w3.org/2000/svg" d="m26 32h-20c-3.314 0-6-2.686-6-6v-20c0-3.314 2.686-6 6-6h20c3.314 0 6 2.686 6 6v20c0 3.314-2.686 6-6 6z" fill="#e3f8fa" data-original="#e3f8fa" style="" class=""/><path xmlns="http://www.w3.org/2000/svg" d="m23.333 16c-.367 0-.667.3-.667.667v1.207l-.233-.174c-.513-.387-1.193-.46-1.773-.233-.067 2.513-2.133 4.533-4.66 4.533s-4.593-2.02-4.66-4.533c-.58-.233-1.26-.147-1.773.233l-.233.173v-1.207c-.001-.366-.301-.666-.667-.666s-.667.3-.667.667v5.333c0 1.1.9 2 2 2h12c1.1 0 2-.9 2-2v-5.333c0-.367-.3-.667-.667-.667z" fill="#ff9393" data-original="#26c6da" style="" class=""/><g xmlns="http://www.w3.org/2000/svg" fill="#8ce1eb"><path d="m12.833 14c-.276 0-.5-.224-.5-.5v-1c0-.276.224-.5.5-.5s.5.224.5.5v1c0 .276-.224.5-.5.5z" fill="#73dde9" data-original="#8ce1eb" style="" class=""/><path d="m19.167 14c-.276 0-.5-.224-.5-.5v-1c0-.276.224-.5.5-.5s.5.224.5.5v1c0 .276-.224.5-.5.5z" fill="#73dde9" data-original="#8ce1eb" style="" class=""/><path d="m12.833 10.667c-.276 0-.5-.224-.5-.5v-1c0-.276.224-.5.5-.5s.5.224.5.5v1c0 .276-.224.5-.5.5z" fill="#73dde9" data-original="#8ce1eb" style="" class=""/><path d="m19.167 10.667c-.276 0-.5-.224-.5-.5v-1c0-.276.224-.5.5-.5s.5.224.5.5v1c0 .276-.224.5-.5.5z" fill="#73dde9" data-original="#8ce1eb" style="" class=""/><path d="m14.833 12.667c-.276 0-.5-.224-.5-.5v-1.667c0-.276.224-.5.5-.5s.5.224.5.5v1.667c0 .276-.224.5-.5.5z" fill="#73dde9" data-original="#8ce1eb" style="" class=""/><path d="m17.167 12.667c-.276 0-.5-.224-.5-.5v-1.667c0-.276.224-.5.5-.5s.5.224.5.5v1.667c0 .276-.224.5-.5.5z" fill="#73dde9" data-original="#8ce1eb" style="" class=""/><path d="m14.833 9.5c-.276 0-.5-.224-.5-.5v-.5c0-.276.224-.5.5-.5s.5.224.5.5v.5c0 .276-.224.5-.5.5z" fill="#73dde9" data-original="#8ce1eb" style="" class=""/><path d="m17.167 9.5c-.276 0-.5-.224-.5-.5v-.5c0-.276.224-.5.5-.5s.5.224.5.5v.5c0 .276-.224.5-.5.5z" fill="#73dde9" data-original="#8ce1eb" style="" class=""/><path d="m16 20.667c-1.838 0-3.333-1.495-3.333-3.333s1.495-3.334 3.333-3.334 3.333 1.495 3.333 3.333-1.495 3.334-3.333 3.334z" fill="#73dde9" data-original="#8ce1eb" style="" class=""/></g></g></svg>
