<svg id="Bold" enable-background="new 0 0 32 32" height="512" viewBox="0 0 32 32" width="512" xmlns="http://www.w3.org/2000/svg"><path d="m26 32h-20c-3.314 0-6-2.686-6-6v-20c0-3.314 2.686-6 6-6h20c3.314 0 6 2.686 6 6v20c0 3.314-2.686 6-6 6z" fill="#f5e6fe"/><path d="m16.167 12h-4.333c-.643 0-1.167-.523-1.167-1.167v-1c0-.276.224-.5.5-.5h1.069c.218-.768.926-1.333 1.764-1.333s1.546.565 1.764 1.333h1.069c.276 0 .5.224.5.5v1c0 .644-.523 1.167-1.166 1.167z" fill="#be63f9"/><path d="m18.167 10h-.167v.833c0 1.013-.82 1.833-1.833 1.833h-4.333c-1.013 0-1.833-.82-1.833-1.833v-.833h-.168c-1.013 0-1.833.82-1.833 1.833v10.333c0 1.014.82 1.834 1.833 1.834h8.333c.133 0 .267-.013.387-.047-1.287-.153-2.413-.82-3.173-1.787h-4.88c-.367 0-.667-.3-.667-.667s.3-.667.667-.667h4.14c-.127-.32-.213-.653-.253-1h-3.887c-.367 0-.667-.3-.667-.667s.3-.667.667-.667h3.887c.04-.347.127-.68.253-1h-4.14c-.367 0-.667-.3-.667-.667v-2.331c0-.367.3-.667.667-.667h7c.347 0 .633.267.66.607.327-.073.66-.107 1.007-.107.287 0 .567.027.833.08v-2.58c0-1.013-.82-1.833-1.833-1.833z" fill="#be63f9"/><g fill="#d9a4fc"><path d="m23.333 24c-.171 0-.341-.065-.471-.195l-1.879-1.879c-.26-.26-.26-.682 0-.943s.682-.26.943 0l1.879 1.879c.26.26.26.682 0 .943-.13.13-.301.195-.472.195z"/><path d="m19.167 15.667c-1.93 0-3.5 1.57-3.5 3.5s1.57 3.5 3.5 3.5 3.5-1.57 3.5-3.5-1.57-3.5-3.5-3.5z"/></g></svg>