<?xml version="1.0"?>
<svg xmlns="http://www.w3.org/2000/svg" xmlns:xlink="http://www.w3.org/1999/xlink" xmlns:svgjs="http://svgjs.com/svgjs" version="1.1" width="512" height="512" x="0" y="0" viewBox="0 0 32 32" style="enable-background:new 0 0 512 512" xml:space="preserve" class=""><g><path xmlns="http://www.w3.org/2000/svg" d="m26 32h-20c-3.314 0-6-2.686-6-6v-20c0-3.314 2.686-6 6-6h20c3.314 0 6 2.686 6 6v20c0 3.314-2.686 6-6 6z" fill="#ffffff" data-original="#e3f8fa" style="" class=""/><path xmlns="http://www.w3.org/2000/svg" d="m16 24c4.419 0 8-3.581 8-8s-3.581-8-8-8-8 3.581-8 8 3.581 8 8 8zm-4.34-8.173 7.713-2.974c.358-.129.671.087.555.629l.001-.001-1.313 6.187c-.097.438-.358.545-.723.339l-2-1.474-.965.929c-.107.107-.197.197-.403.197l.142-2.036 3.707-3.349c.161-.142-.036-.222-.248-.081l-4.581 2.884-1.974-.616c-.43-.135-.439-.428.089-.634z" fill="#6cc1e3" data-original="#26c6da" style="" class=""/></g></svg>
